<svg width="167" height="36" viewBox="0 0 167 36" fill="none" xmlns="http://www.w3.org/2000/svg">
<path d="M30.1152 6.91344C28.8671 8.62707 27.9192 10.5329 27.3104 12.5525C26.0229 9.56912 23.7114 7.12196 20.7769 5.63553C17.8438 7.12138 15.5329 9.56675 14.2443 12.5481C13.6349 10.53 12.6873 8.62544 11.4404 6.91255C13.7583 3.72517 17.0175 1.31237 20.7778 0C24.538 1.31306 27.7971 3.7261 30.1152 6.91344Z" fill="url(#paint0_linear_9337_8007)"/>
<path d="M0.179535 29.9406C0.358922 28.7203 0.358922 27.4811 0.179535 26.2608C2.29059 28.2441 7.0982 29.191 11.2085 29.191C14.5555 29.191 15.9484 28.4635 15.9484 27.0095C15.9484 25.0705 13.8374 24.8502 8.82765 24.4316C3.32447 23.9466 0 23.0873 0 19.7598C0 16.4765 2.98706 14.8685 9.0974 14.8685C12.4824 14.864 15.8525 15.3088 19.1159 16.1907C18.9361 17.3296 18.9361 18.489 19.1159 19.6279C15.909 18.2627 12.4576 17.5362 8.96208 17.4907C5.50319 17.4907 4.04348 18.1739 4.04348 19.65C4.04348 21.4129 5.84059 21.8757 10.4227 22.228C16.1965 22.6705 19.9919 23.4404 19.9919 26.9874C19.9919 30.2485 16.9372 31.8132 10.8494 31.8132C7.20833 31.8078 3.59663 31.1739 0.179535 29.9406Z" fill="#003325"/>
<path d="M26.9791 18.2182C26.9114 22.643 26.9791 27.1423 27.1812 31.5716H23.1377C23.3181 26.1068 23.3181 20.6209 23.1377 15.1561C24.9891 15.3546 26.8571 15.3546 28.7085 15.1561C32.1674 19.7173 35.7839 24.2124 39.5579 28.6414C39.6256 24.1466 39.5805 19.6288 39.3558 15.1561C40.6801 15.3658 42.03 15.3658 43.3542 15.1561C43.1973 20.6209 43.2198 26.1068 43.4219 31.5716H37.9864C34.4553 27.0511 30.7979 22.5811 26.9791 18.2182Z" fill="#003325"/>
<path d="M47.2407 15.1119C50.2729 15.1119 53.1264 15.0455 57.3936 15.0455C62.6947 15.0455 65.5925 16.258 65.5925 19.166C65.5925 21.7661 63.2342 22.7793 60.3365 22.89V23.1758C63.9307 23.2643 66.6263 24.4537 66.6263 27.252C66.6263 31.2185 61.0781 31.7035 57.0571 31.7035C52.3659 31.7035 50.3405 31.5716 47.2407 31.5716C47.5105 27.4511 47.5105 19.2306 47.2407 15.1119ZM57.4162 22.3838C60.1795 22.3838 61.5273 21.5873 61.5273 19.9598C61.5273 18.2191 60.0442 17.6244 57.4162 17.6244C54.7205 17.6244 52.4967 17.6244 51.2391 17.6465C51.1949 19.1005 51.1714 20.6651 51.1949 22.3369C53.1039 22.3608 55.2375 22.3829 57.4162 22.3829V22.3838ZM51.2815 29.0379C53.0561 29.0813 54.4264 29.1264 57.2565 29.1264C61.3 29.1264 62.3086 27.9582 62.3086 26.6582C62.3086 25.49 61.2982 24.521 57.4117 24.521C55.233 24.521 53.0984 24.521 51.1868 24.5431C51.1949 26.0449 51.2391 27.6494 51.2842 29.0379H51.2815Z" fill="#003325"/>
<path d="M72.2668 23.3156C72.2668 17.8695 76.7352 14.8588 83.9119 14.8588C87.0471 14.8534 90.1501 15.4786 93.0292 16.696C92.9163 17.563 92.9163 18.4406 93.0292 19.3076C90.3003 17.7422 87.2079 16.889 84.0473 16.8296C78.5856 16.8075 75.133 19.1757 75.133 23.3165C75.133 27.3237 78.1796 29.9132 83.957 29.9132C87.3103 30.0144 90.5721 28.8315 93.0517 26.6148C93.0055 27.4667 93.0584 28.3209 93.2096 29.1609C90.7269 30.976 87.8869 31.9044 83.6864 31.9044C76.3969 31.9052 72.2668 28.6503 72.2668 23.3156Z" fill="#003325"/>
<path d="M107.291 31.5716C106.961 30.6432 106.764 29.6748 106.704 28.6937C105.982 29.7394 104.996 30.583 103.841 31.1415C102.686 31.7001 101.404 31.9544 100.118 31.8796C96.8463 31.8796 95.3794 30.4636 95.3794 28.6255C95.3794 26.4131 97.6348 25.1502 102.105 25.1502H106.641C106.551 22.7608 105.852 21.2315 102.04 21.2315C99.7568 21.1624 97.5214 21.8829 95.7249 23.267C95.8378 22.4889 95.8378 21.699 95.7249 20.9209C97.8036 19.8985 100.103 19.3824 102.428 19.4164C106.849 19.4164 109.13 20.8324 109.154 24.7741C109.042 27.068 109.317 29.3642 109.966 31.5707L107.291 31.5716ZM106.659 28.229C106.637 27.498 106.659 26.7901 106.659 26.1936V25.9281H103.816C100.297 25.9281 98.1734 26.437 98.1734 28.1202C98.1734 29.4476 99.3697 30.1344 101.378 30.1344C103.319 30.1681 105.203 29.4885 106.659 28.229Z" fill="#003325"/>
<path d="M127.058 25.3741C127.058 29.1591 124.442 31.9052 120.111 31.9052C119.116 31.9352 118.129 31.7222 117.239 31.2856C116.349 30.8489 115.583 30.2021 115.01 29.4034C115.033 31.5946 115.078 33.8088 115.259 36C114.248 35.8714 113.225 35.864 112.212 35.9779C112.554 30.6406 112.554 25.2874 112.212 19.95C113.24 19.9127 114.258 19.734 115.236 19.4191C114.991 20.8704 114.825 22.3336 114.74 23.8024H114.965C115.374 22.5216 116.19 21.403 117.294 20.6102C118.398 19.8175 119.732 19.3923 121.1 19.3969C121.902 19.3664 122.702 19.5012 123.448 19.7925C124.194 20.0839 124.87 20.5254 125.431 21.0886C125.992 21.6517 126.427 22.3241 126.707 23.0622C126.988 23.8004 127.107 24.5879 127.058 25.3741ZM124.395 25.5068C124.433 24.9246 124.342 24.3412 124.13 23.7961C123.918 23.2511 123.589 22.7571 123.165 22.3477C122.741 21.9383 122.233 21.6231 121.674 21.4233C121.115 21.2236 120.519 21.144 119.926 21.1899C115.686 21.1899 115.007 24.8183 115.007 27.0122V28.4954C115.515 29.1152 116.161 29.6115 116.897 29.9456C117.632 30.2796 118.437 30.4424 119.247 30.4211C122.071 30.4211 124.395 28.7609 124.395 25.5068Z" fill="#003325"/>
<path d="M128.818 16.3199C128.818 15.4783 129.449 15.0579 130.646 15.0579C131.977 15.0579 132.654 15.4783 132.654 16.3199C132.654 17.2049 131.977 17.5819 130.646 17.5819C129.449 17.581 128.818 17.2049 128.818 16.3199ZM132.09 19.7288C131.91 23.736 131.91 27.5432 132.09 31.5725H129.269C129.472 27.6271 129.472 23.6742 129.269 19.7288C130.202 19.8949 131.157 19.8949 132.09 19.7288Z" fill="#003325"/>
<path d="M139.312 26.3476C139.267 29.0025 140.665 29.845 142.379 29.8875C143.617 29.877 144.841 29.6368 145.988 29.1795C145.868 29.8154 145.86 30.4668 145.965 31.1052C144.599 31.561 143.168 31.8 141.725 31.8132C139.22 31.769 136.918 30.7734 136.918 27.4768C136.918 26.6352 136.918 24.0254 136.873 21.3448C135.722 21.3669 134.594 21.4112 133.511 21.4776C133.579 20.8965 133.579 20.3099 133.511 19.7288C134.572 19.7952 135.7 19.8395 136.828 19.8616C136.806 18.4456 136.738 17.0943 136.67 16.0978C137.636 16.0416 138.588 15.8401 139.491 15.5004C139.469 16.9394 139.424 18.4209 139.401 19.8837C141.657 19.9058 143.937 19.8395 145.987 19.7288C145.942 20.3109 145.942 20.8955 145.987 21.4776C143.912 21.3669 141.631 21.3006 139.374 21.3227C139.357 23.0714 139.312 24.798 139.312 26.3476Z" fill="#003325"/>
<path d="M159.283 31.5716C158.954 30.6432 158.757 29.6748 158.697 28.6937C157.975 29.7394 156.988 30.583 155.834 31.1415C154.679 31.7001 153.396 31.9544 152.111 31.8796C148.839 31.8796 147.372 30.4636 147.372 28.6255C147.372 26.4131 149.627 25.1502 154.097 25.1502H158.633C158.543 22.7608 157.844 21.2315 154.032 21.2315C151.749 21.1624 149.514 21.8829 147.717 23.267C147.83 22.4889 147.83 21.699 147.717 20.9209C149.796 19.8985 152.095 19.3825 154.42 19.4164C158.841 19.4164 161.123 20.8324 161.146 24.7741C161.035 27.068 161.309 29.3642 161.958 31.5707L159.283 31.5716ZM158.652 28.229C158.629 27.498 158.652 26.7901 158.652 26.1936V25.9281H155.808C152.289 25.9281 150.166 26.437 150.166 28.1202C150.166 29.4476 151.362 30.1344 153.37 30.1344C155.311 30.1681 157.195 29.4885 158.652 28.229Z" fill="#003325"/>
<path d="M167 14.0198C166.664 19.8662 166.634 25.7257 166.91 31.5751H164.089C164.314 26.9733 164.36 18.9562 164.111 14.5066C165.095 14.496 166.07 14.3317 167 14.0198Z" fill="#003325"/>
<defs>
<linearGradient id="paint0_linear_9337_8007" x1="20.7778" y1="12.5525" x2="20.7778" y2="0" gradientUnits="userSpaceOnUse">
<stop stop-color="#86B110"/>
<stop offset="1" stop-color="#005A3D"/>
</linearGradient>
</defs>
</svg>
